<svg width="25" height="25" viewBox="0 0 25 25" fill="none" xmlns="http://www.w3.org/2000/svg">
	<path d="M14.8437 2.73438C10.7446 2.73438 7.42186 6.05713 7.42186 10.1562C7.42186 11.8726 8.00535 13.4521 8.98192 14.7095L7.9785 15.7129L6.4575 14.1919C6.42032 14.1555 6.37036 14.1351 6.31834 14.1351C6.26632 14.1351 6.21636 14.1555 6.17918 14.1919L5.2075 15.1636C5.17111 15.2008 5.15074 15.2507 5.15074 15.3027C5.15074 15.3548 5.17111 15.4047 5.2075 15.4419L6.7285 16.9629L5.6323 18.0591L4.11131 16.5381C4.07412 16.5017 4.02417 16.4813 3.97214 16.4813C3.92012 16.4813 3.87017 16.5017 3.83298 16.5381L2.8613 17.5098C2.82492 17.5469 2.80455 17.5969 2.80455 17.6489C2.80455 17.7009 2.82492 17.7509 2.8613 17.7881L4.3823 19.3091L2.78806 20.9033C2.75171 20.94 2.73132 20.9896 2.73132 21.0413C2.73132 21.0929 2.75171 21.1425 2.78806 21.1792L3.82078 22.2119C3.89646 22.2876 4.02097 22.2876 4.09666 22.2119L10.2881 16.0205C11.5914 17.0314 13.1943 17.5795 14.8437 17.5781C18.9429 17.5781 22.2656 14.2554 22.2656 10.1562C22.2656 6.05713 18.9429 2.73438 14.8437 2.73438ZM18.7793 14.0918C17.7295 15.144 16.3306 15.7227 14.8437 15.7227C13.3569 15.7227 11.958 15.144 10.9082 14.0918C9.85594 13.042 9.27733 11.6431 9.27733 10.1562C9.27733 8.66943 9.85594 7.27051 10.9082 6.2207C11.958 5.16846 13.3569 4.58984 14.8437 4.58984C16.3306 4.58984 17.7295 5.16846 18.7793 6.2207C19.8315 7.27051 20.4102 8.66943 20.4102 10.1562C20.4102 11.6431 19.8315 13.042 18.7793 14.0918Z" fill="black" />
</svg>