<svg width="25" height="25" viewBox="0 0 25 25" fill="none" xmlns="http://www.w3.org/2000/svg">
	<path d="M24.0208 15.9723L21.1875 12.5001L23.9653 9.09728C24.1172 8.91113 24.2129 8.68553 24.2412 8.44692C24.2695 8.2083 24.2292 7.96657 24.125 7.75006C24.0195 7.50738 23.8444 7.30137 23.622 7.15802C23.3995 7.01466 23.1396 6.94037 22.875 6.9445H1.34722C1.17303 6.94174 1.00001 6.97333 0.838025 7.03745C0.676043 7.10157 0.52828 7.19698 0.403175 7.31821C0.278069 7.43945 0.178072 7.58414 0.108895 7.74403C0.0397171 7.90392 0.00271448 8.07587 0 8.25006L0 16.757C0.00729912 17.1076 0.153126 17.441 0.40559 17.6844C0.658054 17.9277 0.996611 18.0612 1.34722 18.0556H22.9514C23.2071 18.0599 23.4588 17.9909 23.6766 17.8568C23.8944 17.7226 24.0693 17.529 24.1806 17.2987C24.2805 17.0847 24.3185 16.8471 24.2903 16.6126C24.262 16.3782 24.1687 16.1564 24.0208 15.9723ZM1.38889 16.6667V8.33339H22.7639L19.4028 12.4514L22.8125 16.6667H1.38889Z" fill="white" />
	<path d="M6.52127 13.4375L4.25738 10.4166H3.47266V14.7083H4.25738V11.6944L6.52127 14.7083H7.29905V10.4166H6.52127V13.4375Z" fill="white" />
	<path d="M8.45801 14.7083H11.6941V14H9.24273V12.8819H11.458V12.1666H9.24273V11.1319H11.6941V10.4166H8.45801V14.7083Z" fill="white" />
	<path d="M17.0278 13.493L16.0139 10.4166H15.1667L14.1458 13.493L13.2292 10.4166H12.375L13.7361 14.7083H14.5069L15.5903 11.5208L16.6667 14.7083H17.4514L18.8056 10.4166H17.9514L17.0278 13.493Z" fill="white" />
</svg>