<svg width="25" height="25" viewBox="0 0 25 25" fill="none" xmlns="http://www.w3.org/2000/svg">
	<path d="M21.0906 1.24213L21.3235 1.00932C21.4987 0.834187 21.7067 0.695287 21.9356 0.600546C22.1645 0.505806 22.4099 0.457081 22.6576 0.457153C22.9053 0.457226 23.1506 0.506095 23.3795 0.600969C23.6084 0.695844 23.8163 0.834866 23.9914 1.0101C24.1666 1.18533 24.3055 1.39334 24.4002 1.62226C24.4949 1.85117 24.5437 2.0965 24.5436 2.34424C24.5435 2.59199 24.4946 2.83729 24.3998 3.06615C24.3049 3.29501 24.1659 3.50294 23.9906 3.67807L23.7578 3.90932C24.1561 4.35598 24.3684 4.93806 24.3513 5.53624C24.3341 6.13442 24.0888 6.70338 23.6656 7.1265L7.58439 23.2093C7.48386 23.3093 7.35801 23.3801 7.22033 23.414L0.97033 24.9765C0.839537 25.0091 0.702542 25.0072 0.572663 24.9712C0.442783 24.9352 0.324437 24.8661 0.229128 24.7708C0.133819 24.6755 0.0647898 24.5572 0.0287501 24.4273C-0.00728963 24.2974 -0.00911368 24.1604 0.0234552 24.0296L1.58596 17.7796C1.62014 17.6425 1.69088 17.5172 1.79064 17.4171L16.8563 2.3515C16.7056 2.24546 16.5223 2.19608 16.3387 2.21209C16.1552 2.2281 15.9832 2.30847 15.8531 2.439L10.7094 7.58432C10.6368 7.65696 10.5505 7.71457 10.4556 7.75389C10.3607 7.7932 10.259 7.81343 10.1563 7.81343C10.0535 7.81343 9.95182 7.7932 9.85692 7.75389C9.76201 7.71457 9.67578 7.65696 9.60314 7.58432C9.53051 7.51168 9.47289 7.42545 9.43357 7.33054C9.39426 7.23564 9.37403 7.13392 9.37403 7.03119C9.37403 6.92847 9.39426 6.82675 9.43357 6.73184C9.47289 6.63694 9.53051 6.5507 9.60314 6.47807L14.75 1.33432C15.1734 0.910903 15.7428 0.6656 16.3414 0.648747C16.9399 0.631895 17.5222 0.844772 17.9688 1.24369C18.3981 0.860003 18.9536 0.647773 19.5294 0.647485C20.1052 0.647197 20.6609 0.85887 21.0906 1.24213ZM20.0844 2.439C19.9379 2.29254 19.7392 2.21027 19.532 2.21027C19.3249 2.21027 19.1262 2.29254 18.9797 2.439L3.04689 18.3687L1.85314 23.1453L6.6297 21.9515L22.5625 6.02182C22.6353 5.94925 22.693 5.86303 22.7324 5.76812C22.7718 5.67321 22.792 5.57145 22.792 5.46869C22.792 5.36593 22.7718 5.26418 22.7324 5.16926C22.693 5.07435 22.6353 4.98814 22.5625 4.91557L20.086 2.439H20.0844Z" fill="black" />
</svg>