<svg width="45" height="43" viewBox="0 0 45 43" fill="none" xmlns="http://www.w3.org/2000/svg">
	<path d="M36.2548 31.9124C36.1098 31.875 35.934 31.8958 35.7319 31.9663C33.0248 33.1367 30.3925 33.971 27.8349 34.4649C22.311 35.5274 16.9277 34.9712 11.6894 32.8006C10.2348 32.1946 8.21332 31.1736 5.62494 29.7293C5.55825 29.6795 5.47688 29.6505 5.39203 29.6463C5.30414 29.6421 5.22944 29.6504 5.15912 29.6836C5.08881 29.7168 5.03608 29.7583 4.99653 29.8123C4.95697 29.8662 4.94819 29.9409 4.97895 30.0364C5.00531 30.1277 5.07123 30.2315 5.1811 30.3435C5.63813 30.8499 6.20502 31.3894 6.87738 31.9622C7.54975 32.5349 8.44184 33.1824 9.55365 33.9046C10.6655 34.6267 11.83 35.27 13.0385 35.8303C14.2514 36.3906 15.6577 36.8638 17.2617 37.2456C18.8657 37.6275 20.4697 37.8184 22.0693 37.8184C23.6601 37.8184 25.207 37.6648 26.7055 37.366C28.2084 37.063 29.4741 36.7061 30.5068 36.291C31.5351 35.8802 32.4843 35.4195 33.3544 34.9214C34.2245 34.4234 34.8661 34 35.2836 33.6638C35.7011 33.3235 35.9999 33.0579 36.1713 32.8587C36.3735 32.6221 36.4745 32.4187 36.4745 32.2403C36.4789 32.0535 36.3998 31.9456 36.2548 31.9124ZM23.1767 14.4475C22.5087 14.5015 21.7045 14.6177 20.7597 14.792C19.8149 14.9622 18.9404 15.178 18.1318 15.4312C17.3232 15.6843 16.497 16.0371 15.6577 16.4854C14.8139 16.9336 14.0976 17.4483 13.5043 18.021C12.9111 18.5938 12.4277 19.3118 12.0497 20.1792C11.6718 21.0425 11.4829 21.9929 11.4829 23.0305C11.4829 24.1553 11.6894 25.1555 12.1113 26.0396C12.5287 26.9236 13.0869 27.6167 13.79 28.1314C14.4887 28.646 15.2841 29.0486 16.163 29.3433C17.0419 29.638 17.9736 29.7708 18.9404 29.7334C19.9072 29.6961 20.852 29.5549 21.7704 29.3059C22.6845 29.0611 23.5458 28.6668 24.3456 28.1314C25.1454 27.596 25.8002 26.961 26.3144 26.2346C26.5034 26.5086 26.6703 26.7119 26.8198 26.8447L27.2021 27.2141C27.457 27.459 27.8481 27.8201 28.3754 28.2974C28.8984 28.7747 29.4345 29.2395 29.9706 29.6961L34.5585 25.5498L34.2949 25.3465C34.1059 25.2095 33.8818 25.0144 33.6269 24.7529C33.372 24.4956 33.1171 24.2092 32.871 23.9021C32.6205 23.595 32.4052 23.2339 32.225 22.8272C32.0449 22.4204 31.9526 22.0261 31.9526 21.6443V10.7371C31.9526 10.3179 31.8691 9.86548 31.7021 9.37574C31.5307 8.89014 31.2319 8.35889 30.7924 7.78614C30.353 7.21338 29.808 6.69873 29.1576 6.25049C28.5029 5.80225 27.6327 5.42041 26.5385 5.11328C25.4487 4.80615 24.227 4.65259 22.8823 4.65259C21.5068 4.65259 20.228 4.80615 19.0327 5.10498C17.8417 5.40796 16.8222 5.81055 15.9697 6.3169C15.1215 6.82324 14.392 7.40845 13.7856 8.07666C13.1791 8.74488 12.7265 9.44214 12.4321 10.1685C12.1376 10.8948 11.9882 11.6294 11.9882 12.3723L17.9296 12.8662C18.1713 12.1856 18.4965 11.5962 18.8964 11.0898C19.3007 10.5835 19.683 10.2183 20.0302 9.98999C20.3818 9.76172 20.7597 9.57911 21.1596 9.44214C21.5639 9.30518 21.8364 9.23462 21.977 9.21802C22.1176 9.20557 22.2275 9.20142 22.311 9.20142C23.4843 9.20142 24.2973 9.5293 24.7543 10.1809C25.04 10.5752 25.1806 11.1729 25.1806 11.978V14.3272C24.5126 14.3521 23.8447 14.3936 23.1767 14.4475ZM25.185 20.752C25.185 21.4409 25.0883 22.0676 24.8993 22.6196C24.4951 23.8274 23.726 24.5869 22.5966 24.8941C21.6122 25.168 20.6762 25.031 19.7885 24.4873C18.8437 23.9063 18.3735 23.0845 18.3735 22.0261C18.3735 21.2002 18.5932 20.4946 19.0327 19.9053C19.4721 19.3201 20.0566 18.8801 20.7905 18.5896C21.5244 18.2991 22.2407 18.0916 22.9438 17.9712C23.6425 17.8467 24.394 17.772 25.185 17.7471V20.752ZM39.9155 29.8372C39.7265 29.6131 39.2167 29.4678 38.3818 29.3931C37.5468 29.3184 36.8217 29.3225 36.1977 29.4097C35.5253 29.4844 34.831 29.667 34.1191 29.9658C33.4028 30.2605 33.0907 30.5095 33.1699 30.7046L33.2006 30.7586L33.2402 30.7876L33.3017 30.7959H33.5038C33.539 30.7959 33.5829 30.7918 33.6445 30.7876C33.706 30.7835 33.7631 30.7752 33.8158 30.771C33.8686 30.7669 33.9433 30.7586 34.04 30.7544C34.1323 30.7503 34.2201 30.7378 34.3036 30.7254C34.3168 30.7254 34.4662 30.7129 34.7563 30.688C35.0463 30.6631 35.2573 30.6465 35.3847 30.6341C35.5121 30.6216 35.7275 30.6092 36.0219 30.5967C36.3163 30.5842 36.5536 30.5842 36.7294 30.5967C36.9052 30.6092 37.103 30.6258 37.3271 30.6424C37.5512 30.659 37.7314 30.6963 37.872 30.7544C38.0126 30.8084 38.1181 30.8789 38.184 30.9661C38.4125 31.24 38.3686 31.846 38.0522 32.7881C37.7358 33.7302 37.4369 34.4815 37.1557 35.0376C37.0326 35.2742 37.0326 35.4195 37.1557 35.4817C37.2787 35.544 37.4501 35.4859 37.6786 35.3157C38.3642 34.8093 38.9355 34.0457 39.3969 33.0205C39.665 32.4146 39.8583 31.7837 39.9726 31.1238C40.0781 30.4639 40.0605 30.0364 39.9155 29.8372Z" fill="#F4BF76" />
</svg>