<svg width="25" height="25" viewBox="0 0 25 25" fill="none" xmlns="http://www.w3.org/2000/svg">
	<path d="M23.2844 13.0277L18.4719 10.8124V4.46518C18.4697 4.33202 18.4292 4.2023 18.3554 4.09148C18.2815 3.98067 18.1773 3.89343 18.0552 3.84018L12.8469 1.44435C12.7555 1.40204 12.656 1.38013 12.5552 1.38013C12.4545 1.38013 12.355 1.40204 12.2636 1.44435L7.05523 3.84018C6.93469 3.89597 6.83268 3.98515 6.76129 4.09716C6.6899 4.20917 6.65213 4.3393 6.65245 4.47212V10.8193L1.86079 13.0277C1.74025 13.0835 1.63823 13.1727 1.56684 13.2847C1.49545 13.3967 1.45768 13.5268 1.45801 13.6596V20.4513C1.45768 20.5841 1.49545 20.7143 1.56684 20.8263C1.63823 20.9383 1.74025 21.0275 1.86079 21.0832L7.06912 23.4791C7.16054 23.5214 7.26006 23.5433 7.36079 23.5433C7.46152 23.5433 7.56104 23.5214 7.65245 23.4791L12.5691 21.2152L17.4858 23.4791C17.5772 23.5214 17.6767 23.5433 17.7775 23.5433C17.8782 23.5433 17.9777 23.5214 18.0691 23.4791L23.2775 21.0832C23.398 21.0275 23.5 20.9383 23.5714 20.8263C23.6428 20.7143 23.6806 20.5841 23.6802 20.4513V13.6596C23.6812 13.5276 23.6444 13.398 23.5743 13.286C23.5042 13.1741 23.4036 13.0845 23.2844 13.0277ZM21.333 13.6596L17.7844 15.2777L14.2358 13.6596L17.7844 12.0277L21.333 13.6596ZM12.5691 2.83324L16.1177 4.46518L12.5691 6.09712L9.02745 4.46518L12.5691 2.83324ZM7.36079 12.0207L10.9094 13.6527L7.36079 15.2777L3.81218 13.6596L7.36079 12.0207ZM11.8747 19.9999L7.36079 22.0832L2.8469 19.9999V14.743L7.06912 16.6666C7.15865 16.7068 7.25569 16.7276 7.35384 16.7276C7.452 16.7276 7.54904 16.7068 7.63857 16.6666L11.8608 14.7221L11.8747 19.9999ZM8.05523 10.8124V5.55546L12.2775 7.4999C12.3689 7.54221 12.4684 7.56412 12.5691 7.56412C12.6699 7.56412 12.7694 7.54221 12.8608 7.4999L17.083 5.55546V10.8193L12.5691 12.9027L8.05523 10.8124ZM22.2983 20.0068L17.7844 22.0902L13.2636 20.0068V14.736L17.4927 16.6666C17.5813 16.7058 17.6771 16.7261 17.774 16.7261C17.8709 16.7261 17.9667 16.7058 18.0552 16.6666L22.2775 14.7221L22.2983 20.0068Z" fill="white" />
</svg>