<svg width="25" height="25" viewBox="0 0 25 25" fill="none" xmlns="http://www.w3.org/2000/svg">
	<path d="M14.583 7.29165V5.38957C14.583 5.10141 14.5232 4.8164 14.4074 4.55253C14.2916 4.28867 14.1224 4.05169 13.9103 3.85658C13.6983 3.66147 13.4481 3.51247 13.1755 3.41899C12.9029 3.32552 12.6139 3.28961 12.3268 3.31352L3.99342 4.00727C3.47264 4.05065 2.98718 4.28816 2.63332 4.6727C2.27946 5.05724 2.08303 5.56073 2.08301 6.08332V18.9167C2.08303 19.4392 2.27946 19.9427 2.63332 20.3273C2.98718 20.7118 3.47264 20.9493 3.99342 20.9927L12.3268 21.6875C12.614 21.7114 12.9031 21.6755 13.1757 21.5819C13.4484 21.4884 13.6986 21.3393 13.9107 21.1441C14.1228 20.9489 14.292 20.7117 14.4077 20.4478C14.5235 20.1838 14.5831 19.8986 14.583 19.6104V17.7083M13.5413 12.5H22.9163H13.5413ZM22.9163 12.5L19.4445 8.33332L22.9163 12.5ZM22.9163 12.5L19.4445 16.6667L22.9163 12.5Z" stroke="white" stroke-width="1.5" stroke-linecap="round" stroke-linejoin="round" />
</svg>